name Walk10.mot
datacolumns 19
datarows 17
range 3.94000000 4.02000000
endheader

                time	   L_ground_force_vx	   L_ground_force_vy	   L_ground_force_vz	   L_ground_force_px	   L_ground_force_py	   L_ground_force_pz	   R_ground_force_vx	   R_ground_force_vy	   R_ground_force_vz	   R_ground_force_px	   R_ground_force_py	   R_ground_force_pz	   L_ground_torque_x	   L_ground_torque_y	   L_ground_torque_z	   R_ground_torque_x	   R_ground_torque_y	   R_ground_torque_z	
          3.94000000	          0.00000000	          0.00000000	          0.00000000	         -0.00000000	          0.00000000	         -0.00000000	          7.65275243	         16.13957044	          4.68097706	          0.21069958	          0.00000000	          0.03371156	          0.00000000	          0.00000000	          0.00000000	          0.00000000	         -1.48674147	          0.00000000	
          3.94500000	          0.00000000	          0.00000000	         -0.00000000	         -0.00000000	          0.00000000	         -0.00000000	          4.10619652	          5.02009421	          3.58429719	          0.15574238	          0.00000000	          0.02487985	          0.00000000	          0.00000000	          0.00000000	          0.00000000	         -0.79150732	          0.00000000	
          3.95000000	          0.00000000	          0.00000000	         -0.00000000	         -0.00000000	          0.00000000	         -0.00000000	          1.50710842	         -2.50763925	          2.59754307	          0.10818205	          0.00000000	          0.01724856	          0.00000000	          0.00000000	          0.00000000	          0.00000000	         -0.28306846	          0.00000000	
          3.95500000	          0.00000000	          0.00000000	         -0.00000000	         -0.00000000	          0.00000000	         -0.00000000	         -0.27883048	         -7.13670494	          1.75932251	          0.06912664	          0.00000000	          0.01099061	          0.00000000	         -0.00000000	          0.00000000	          0.00000000	          0.06537082	          0.00000000	
          3.96000000	          0.00000000	          0.00000000	         -0.00000000	         -0.00000000	          0.00000000	         -0.00000000	         -1.40206638	         -9.54080803	          1.08264677	          0.03861408	          0.00000000	          0.00610828	          0.00000000	         -0.00000000	          0.00000000	          0.00000000	          0.28364814	          0.00000000	
          3.96500000	          0.00000000	          0.00000000	         -0.00000000	         -0.00000000	          0.00000000	         -0.00000000	         -2.01148931	        -10.32795021	          0.56308346	          0.01599306	          0.00000000	          0.00249424	          0.00000000	         -0.00000000	          0.00000000	          0.00000000	          0.40119202	          0.00000000	
          3.97000000	          0.00000000	          0.00000000	         -0.00000000	         -0.00000000	          0.00000000	         -0.00000000	         -2.24321594	        -10.01591326	          0.18536448	          0.00022178	          0.00000000	         -0.00002063	          0.00000000	         -0.00000000	          0.00000000	          0.00000000	          0.44484119	          0.00000000	
          3.97500000	          0.00000000	          0.00000000	         -0.00000000	         -0.00000000	          0.00000000	         -0.00000000	         -2.21440649	         -9.02367238	         -0.07151948	         -0.00990958	          0.00000000	         -0.00163174	          0.00000000	         -0.00000000	          0.00000000	          0.00000000	          0.43765100	          0.00000000	
          3.98000000	          0.00000000	          0.00000000	         -0.00000000	         -0.00000000	          0.00000000	         -0.00000000	         -2.02079876	         -7.67370414	         -0.23059785	         -0.01562289	          0.00000000	         -0.00253586	          0.00000000	         -0.00000000	          0.00000000	          0.00000000	          0.39842717	          0.00000000	
          3.98500000	         -0.00000000	          0.00000000	         -0.00000000	         -0.00000000	          0.00000000	         -0.00000000	         -1.73682113	         -6.20109845	         -0.31437423	         -0.01805115	          0.00000000	         -0.00291510	          0.00000000	         -0.00000000	          0.00000000	          0.00000000	          0.34176291	          0.00000000	
          3.99000000	         -0.00000000	         -0.00000000	         -0.00000000	         -0.00000000	          0.00000000	         -0.00000000	         -1.41735023	         -4.76631304	         -0.34323520	         -0.01818071	          0.00000000	         -0.00292775	          0.00000000	         -0.00000000	          0.00000000	          0.00000000	          0.27839591	          0.00000000	
          3.99500000	         -0.00000000	         -0.00000000	         -0.00000000	         -0.00000000	          0.00000000	         -0.00000000	         -1.10038446	         -3.46925522	         -0.33459743	         -0.01682593	          0.00000000	         -0.00270431	          0.00000000	         -0.00000000	          0.00000000	          0.00000000	          0.21574213	          0.00000000	
          4.00000000	         -0.00000000	         -0.00000000	         -0.00000000	         -0.00000000	          0.00000000	         -0.00000000	         -0.81009335	         -2.36310103	         -0.30259558	         -0.01462640	          0.00000000	         -0.00234715	          0.00000000	         -0.00000000	          0.00000000	          0.00000000	          0.15850088	          0.00000000	
          4.00500000	         -0.00000000	         -0.00000000	         -0.00000000	          0.00000000	          0.00000000	         -0.00000000	         -0.55986669	         -1.46685305	         -0.25814176	         -0.01205912	          0.00000000	         -0.00193248	          0.00000000	         -0.00000000	          0.00000000	          0.00000000	          0.10925767	          0.00000000	
          4.01000000	         -0.00000000	         -0.00000000	         -0.00000000	          0.00000000	          0.00000000	          0.00000000	         -0.35512250	         -0.77609625	         -0.20921850	         -0.00945904	          0.00000000	         -0.00151372	          0.00000000	         -0.00000000	          0.00000000	          0.00000000	          0.06903799	          0.00000000	
          4.01500000	         -0.00000000	         -0.00000000	          0.00000000	          0.00000000	          0.00000000	          0.00000000	         -0.19573812	         -0.27174746	         -0.16129830	         -0.00704356	          0.00000000	         -0.00112546	          0.00000000	         -0.00000000	          0.00000000	          0.00000000	          0.03778582	          0.00000000	
          4.02000000	         -0.00000000	         -0.00000000	          0.00000000	          0.00000000	          0.00000000	          0.00000000	         -0.07804748	          0.07317358	         -0.11781127	         -0.00493750	          0.00000000	         -0.00078747	          0.00000000	         -0.00000000	          0.00000000	          0.00000000	          0.01475601	          0.00000000	
